<svg width="95" height="95" viewBox="0 0 95 95" fill="none" xmlns="http://www.w3.org/2000/svg">
<circle cx="47.5" cy="47.5" r="47.5" fill="#BA0020"/>
<path d="M47.5 12C27.8939 12 12 27.8939 12 47.5C12 67.1061 27.8939 83 47.5 83C67.1061 83 83 67.1061 83 47.5C83 27.8939 67.1061 12 47.5 12ZM34.7422 26.1012C35.4736 26.0581 36.1347 26.4952 36.6359 27.2712L41.4894 36.4755C42.0005 37.5662 41.7101 38.734 40.9478 39.5133L38.7247 41.7364C38.5875 41.9244 38.4972 42.1362 38.495 42.3691C39.3475 45.6691 41.9336 48.7131 44.2153 50.8064C46.4969 52.8997 48.9492 55.7339 52.1325 56.4053C52.526 56.515 53.008 56.5544 53.2896 56.2927L55.8723 53.6623C56.7638 52.9865 58.0536 52.659 59.0054 53.2116H59.0487L67.8067 58.3815C69.0922 59.1872 69.2254 60.7448 68.305 61.6922L62.2729 67.6768C61.3821 68.5903 60.1986 68.8974 59.0489 68.8988C53.9636 68.7465 49.1587 66.2506 45.212 63.6856C38.7339 58.9728 32.7916 53.1276 29.061 46.0656C27.6302 43.1043 25.9495 39.3259 26.1099 36.0207C26.1242 34.7772 26.4606 33.559 27.3363 32.7576L33.3685 26.7253C33.8384 26.3255 34.3033 26.1271 34.7422 26.1012Z" fill="white"/>
</svg>
